<svg width="32" height="32" viewBox="0 0 32 32" fill="none" xmlns="http://www.w3.org/2000/svg">
<g clip-path="url(#clip0_263_64)">
<path d="M1.33337 1.33325H6.66671L10.24 19.1866C10.362 19.8004 10.6959 20.3519 11.1834 20.7443C11.671 21.1368 12.281 21.3452 12.9067 21.3333H25.8667C26.4924 21.3452 27.1025 21.1368 27.59 20.7443C28.0775 20.3519 28.4114 19.8004 28.5334 19.1866L30.6667 7.99992H8.00004M13.3334 27.9999C13.3334 28.7363 12.7364 29.3333 12 29.3333C11.2637 29.3333 10.6667 28.7363 10.6667 27.9999C10.6667 27.2635 11.2637 26.6666 12 26.6666C12.7364 26.6666 13.3334 27.2635 13.3334 27.9999ZM28 27.9999C28 28.7363 27.4031 29.3333 26.6667 29.3333C25.9303 29.3333 25.3334 28.7363 25.3334 27.9999C25.3334 27.2635 25.9303 26.6666 26.6667 26.6666C27.4031 26.6666 28 27.2635 28 27.9999Z" stroke="#1E1E1E" stroke-width="3" stroke-linecap="round" stroke-linejoin="round"/>
</g>
<defs>
<clipPath id="clip0_263_64">
<rect width="32" height="32" fill="white"/>
</clipPath>
</defs>
</svg>
